<?xml version="1.0" encoding="UTF-8" standalone="no"?>
<!DOCTYPE svg PUBLIC "-//W3C//DTD SVG 1.1//EN"
 "http://www.w3.org/Graphics/SVG/1.1/DTD/svg11.dtd">
<!-- Generated by graphviz version 2.42.4 (0)
 -->
<!-- Title: BuilderScreens Pages: 1 -->
<svg width="1210pt" height="109pt"
 viewBox="0.00 0.00 1210.00 109.00" xmlns="http://www.w3.org/2000/svg" xmlns:xlink="http://www.w3.org/1999/xlink">
<g id="graph0" class="graph" transform="scale(1 1) rotate(0) translate(4 105)">
<title>BuilderScreens</title>
<polygon fill="#fafafa" stroke="transparent" points="-4,4 -4,-105 1206,-105 1206,4 -4,4"/>
<!-- AutomationList -->
<g id="node1" class="node">
<title>AutomationList</title>
<path fill="#e3f2fd" stroke="#64b5f6" d="M85,-72C85,-72 12,-72 12,-72 6,-72 0,-66 0,-60 0,-60 0,-48 0,-48 0,-42 6,-36 12,-36 12,-36 85,-36 85,-36 91,-36 97,-42 97,-48 97,-48 97,-60 97,-60 97,-66 91,-72 85,-72"/>
<text text-anchor="middle" x="48.5" y="-51.8" font-family="Helvetica,sans-Serif" font-size="9.00">AutomationList</text>
</g>
<!-- AutomationEditor -->
<g id="node2" class="node">
<title>AutomationEditor</title>
<path fill="#e3f2fd" stroke="#64b5f6" d="M287,-76C287,-76 203,-76 203,-76 197,-76 191,-70 191,-64 191,-64 191,-44 191,-44 191,-38 197,-32 203,-32 203,-32 287,-32 287,-32 293,-32 299,-38 299,-44 299,-44 299,-64 299,-64 299,-70 293,-76 287,-76"/>
<text text-anchor="middle" x="245" y="-61.8" font-family="Helvetica,sans-Serif" font-size="9.00">AutomationEditor</text>
<text text-anchor="middle" x="245" y="-41.8" font-family="Helvetica,sans-Serif" font-size="9.00">editingId: String?</text>
</g>
<!-- AutomationList&#45;&gt;AutomationEditor -->
<g id="edge1" class="edge">
<title>AutomationList&#45;&gt;AutomationEditor</title>
<path fill="none" stroke="#424242" stroke-width="1.2" d="M97.34,-62.16C103.27,-62.92 109.26,-63.56 115,-64 140.7,-65.95 147.29,-65.8 173,-64 175.55,-63.82 178.15,-63.61 180.78,-63.36"/>
<polygon fill="#424242" stroke="#424242" stroke-width="1.2" points="181.39,-66.82 190.97,-62.29 180.66,-59.86 181.39,-66.82"/>
<text text-anchor="middle" x="144" y="-67.6" font-family="Helvetica,sans-Serif" font-size="8.00">editingId=null</text>
</g>
<!-- AutomationList&#45;&gt;AutomationEditor -->
<g id="edge2" class="edge">
<title>AutomationList&#45;&gt;AutomationEditor</title>
<path fill="none" stroke="#424242" stroke-width="1.2" d="M97.08,-54C122.21,-54 153.39,-54 180.55,-54"/>
<polygon fill="#424242" stroke="#424242" stroke-width="1.2" points="180.74,-57.5 190.74,-54 180.74,-50.5 180.74,-57.5"/>
<text text-anchor="middle" x="144" y="-56.6" font-family="Helvetica,sans-Serif" font-size="8.00">editingId=id</text>
</g>
<!-- AutomationEditor&#45;&gt;AutomationList -->
<g id="edge12" class="edge">
<title>AutomationEditor&#45;&gt;AutomationList</title>
<path fill="none" stroke="gray" stroke-width="1.2" stroke-dasharray="5,2" d="M190.9,-50.68C184.86,-50.4 178.8,-50.16 173,-50 147.23,-49.27 140.77,-49.21 115,-50 112.46,-50.08 109.86,-50.17 107.24,-50.28"/>
<polygon fill="gray" stroke="gray" stroke-width="1.2" points="106.89,-46.79 97.06,-50.75 107.22,-53.78 106.89,-46.79"/>
</g>
<!-- TriggerList -->
<g id="node3" class="node">
<title>TriggerList</title>
<path fill="#e3f2fd" stroke="#64b5f6" d="M458.5,-100C458.5,-100 406.5,-100 406.5,-100 400.5,-100 394.5,-94 394.5,-88 394.5,-88 394.5,-76 394.5,-76 394.5,-70 400.5,-64 406.5,-64 406.5,-64 458.5,-64 458.5,-64 464.5,-64 470.5,-70 470.5,-76 470.5,-76 470.5,-88 470.5,-88 470.5,-94 464.5,-100 458.5,-100"/>
<text text-anchor="middle" x="432.5" y="-79.8" font-family="Helvetica,sans-Serif" font-size="9.00">TriggerList</text>
</g>
<!-- AutomationEditor&#45;&gt;TriggerList -->
<g id="edge3" class="edge">
<title>AutomationEditor&#45;&gt;TriggerList</title>
<path fill="none" stroke="#424242" stroke-width="1.2" d="M297.74,-76.07C304.13,-78.08 310.65,-79.8 317,-81 338.81,-85.11 363.37,-85.82 384.14,-85.32"/>
<polygon fill="#424242" stroke="#424242" stroke-width="1.2" points="384.43,-88.81 394.31,-84.97 384.19,-81.82 384.43,-88.81"/>
</g>
<!-- CommandList -->
<g id="node5" class="node">
<title>CommandList</title>
<path fill="#e3f2fd" stroke="#64b5f6" d="M466,-45C466,-45 399,-45 399,-45 393,-45 387,-39 387,-33 387,-33 387,-21 387,-21 387,-15 393,-9 399,-9 399,-9 466,-9 466,-9 472,-9 478,-15 478,-21 478,-21 478,-33 478,-33 478,-39 472,-45 466,-45"/>
<text text-anchor="middle" x="432.5" y="-24.8" font-family="Helvetica,sans-Serif" font-size="9.00">CommandList</text>
</g>
<!-- AutomationEditor&#45;&gt;CommandList -->
<g id="edge5" class="edge">
<title>AutomationEditor&#45;&gt;CommandList</title>
<path fill="none" stroke="#424242" stroke-width="1.2" d="M299.16,-46.26C323.42,-42.73 352.13,-38.55 376.6,-34.99"/>
<polygon fill="#424242" stroke="#424242" stroke-width="1.2" points="377.41,-38.41 386.8,-33.51 376.4,-31.48 377.41,-38.41"/>
</g>
<!-- TriggerList&#45;&gt;AutomationEditor -->
<g id="edge10" class="edge">
<title>TriggerList&#45;&gt;AutomationEditor</title>
<path fill="none" stroke="gray" stroke-width="1.2" stroke-dasharray="5,2" d="M394.5,-76C386.12,-74.66 377.26,-73.26 369,-72 349.65,-69.04 328.57,-65.91 309.42,-63.12"/>
<polygon fill="gray" stroke="gray" stroke-width="1.2" points="309.7,-59.62 299.3,-61.64 308.69,-66.55 309.7,-59.62"/>
<text text-anchor="middle" x="343" y="-74.6" font-family="Helvetica,sans-Serif" font-size="8.00">:type, id</text>
</g>
<!-- NfcTriggerEditor -->
<g id="node4" class="node">
<title>NfcTriggerEditor</title>
<path fill="#e3f2fd" stroke="#64b5f6" d="M656,-101C656,-101 578,-101 578,-101 572,-101 566,-95 566,-89 566,-89 566,-77 566,-77 566,-71 572,-65 578,-65 578,-65 656,-65 656,-65 662,-65 668,-71 668,-77 668,-77 668,-89 668,-89 668,-95 662,-101 656,-101"/>
<text text-anchor="middle" x="617" y="-80.8" font-family="Helvetica,sans-Serif" font-size="9.00">NfcTriggerEditor</text>
</g>
<!-- TriggerList&#45;&gt;NfcTriggerEditor -->
<g id="edge4" class="edge">
<title>TriggerList&#45;&gt;NfcTriggerEditor</title>
<path fill="none" stroke="#424242" stroke-width="1.2" d="M470.87,-82.2C495.3,-82.34 527.75,-82.52 555.77,-82.67"/>
<polygon fill="#424242" stroke="#424242" stroke-width="1.2" points="555.85,-86.17 565.87,-82.73 555.89,-79.17 555.85,-86.17"/>
<text text-anchor="middle" x="522" y="-84.6" font-family="Helvetica,sans-Serif" font-size="8.00">[type=&quot;nfc&quot;]</text>
</g>
<!-- NfcTriggerEditor&#45;&gt;TriggerList -->
<g id="edge9" class="edge">
<title>NfcTriggerEditor&#45;&gt;TriggerList</title>
<path fill="none" stroke="gray" stroke-width="1.2" stroke-dasharray="5,2" d="M565.87,-80.54C559.85,-80.32 553.79,-80.13 548,-80 524.89,-79.49 519.11,-79.63 496,-80 491.1,-80.08 485.99,-80.19 480.89,-80.32"/>
<polygon fill="gray" stroke="gray" stroke-width="1.2" points="480.41,-76.84 470.51,-80.62 480.61,-83.83 480.41,-76.84"/>
</g>
<!-- CommandList&#45;&gt;AutomationEditor -->
<g id="edge11" class="edge">
<title>CommandList&#45;&gt;AutomationEditor</title>
<path fill="none" stroke="gray" stroke-width="1.2" stroke-dasharray="5,2" d="M386.76,-20.51C365.43,-18.67 339.68,-18.26 317,-23 310.87,-24.28 304.61,-26.12 298.49,-28.28"/>
<polygon fill="gray" stroke="gray" stroke-width="1.2" points="297.1,-25.06 289,-31.89 299.59,-31.6 297.1,-25.06"/>
<text text-anchor="middle" x="343" y="-25.6" font-family="Helvetica,sans-Serif" font-size="8.00">:commandId</text>
</g>
<!-- AppList -->
<g id="node6" class="node">
<title>AppList</title>
<path fill="#e3f2fd" stroke="#64b5f6" d="M636,-45C636,-45 598,-45 598,-45 592,-45 586,-39 586,-33 586,-33 586,-21 586,-21 586,-15 592,-9 598,-9 598,-9 636,-9 636,-9 642,-9 648,-15 648,-21 648,-21 648,-33 648,-33 648,-39 642,-45 636,-45"/>
<text text-anchor="middle" x="617" y="-24.8" font-family="Helvetica,sans-Serif" font-size="9.00">AppList</text>
</g>
<!-- CommandList&#45;&gt;AppList -->
<g id="edge6" class="edge">
<title>CommandList&#45;&gt;AppList</title>
<path fill="none" stroke="#424242" stroke-width="1.2" d="M478.14,-27C507.94,-27 546.79,-27 575.65,-27"/>
<polygon fill="#424242" stroke="#424242" stroke-width="1.2" points="575.8,-30.5 585.8,-27 575.8,-23.5 575.8,-30.5"/>
</g>
<!-- ComponentList -->
<g id="node7" class="node">
<title>ComponentList</title>
<path fill="#e3f2fd" stroke="#64b5f6" d="M879,-49C879,-49 776,-49 776,-49 770,-49 764,-43 764,-37 764,-37 764,-17 764,-17 764,-11 770,-5 776,-5 776,-5 879,-5 879,-5 885,-5 891,-11 891,-17 891,-17 891,-37 891,-37 891,-43 885,-49 879,-49"/>
<text text-anchor="middle" x="827.5" y="-34.8" font-family="Helvetica,sans-Serif" font-size="9.00">ComponentList</text>
<text text-anchor="middle" x="827.5" y="-14.8" font-family="Helvetica,sans-Serif" font-size="9.00">packageName: String</text>
</g>
<!-- AppList&#45;&gt;ComponentList -->
<g id="edge7" class="edge">
<title>AppList&#45;&gt;ComponentList</title>
<path fill="none" stroke="#424242" stroke-width="1.2" d="M648.32,-27C675.88,-27 717.65,-27 753.83,-27"/>
<polygon fill="#424242" stroke="#424242" stroke-width="1.2" points="753.86,-30.5 763.86,-27 753.86,-23.5 753.86,-30.5"/>
<text text-anchor="middle" x="716" y="-29.6" font-family="Helvetica,sans-Serif" font-size="8.00">packageName</text>
</g>
<!-- IntentEditor -->
<g id="node8" class="node">
<title>IntentEditor</title>
<path fill="#e3f2fd" stroke="#64b5f6" d="M1190,-54C1190,-54 1074,-54 1074,-54 1068,-54 1062,-48 1062,-42 1062,-42 1062,-12 1062,-12 1062,-6 1068,0 1074,0 1074,0 1190,0 1190,0 1196,0 1202,-6 1202,-12 1202,-12 1202,-42 1202,-42 1202,-48 1196,-54 1190,-54"/>
<text text-anchor="middle" x="1132" y="-39.8" font-family="Helvetica,sans-Serif" font-size="9.00">IntentEditor</text>
<text text-anchor="middle" x="1132" y="-19.8" font-family="Helvetica,sans-Serif" font-size="9.00">packageName: String</text>
<text text-anchor="middle" x="1132" y="-9.8" font-family="Helvetica,sans-Serif" font-size="9.00">componentName: String</text>
</g>
<!-- ComponentList&#45;&gt;IntentEditor -->
<g id="edge8" class="edge">
<title>ComponentList&#45;&gt;IntentEditor</title>
<path fill="none" stroke="#424242" stroke-width="1.2" d="M891.18,-27C937.72,-27 1001.55,-27 1051.66,-27"/>
<polygon fill="#424242" stroke="#424242" stroke-width="1.2" points="1051.81,-30.5 1061.81,-27 1051.81,-23.5 1051.81,-30.5"/>
<text text-anchor="middle" x="976.5" y="-29.6" font-family="Helvetica,sans-Serif" font-size="8.00">packageName, componentName</text>
</g>
</g>
</svg>
